<?xml version="1.0" standalone="no"?>
<!DOCTYPE svg PUBLIC "-//W3C//DTD SVG 20010904//EN"
 "http://www.w3.org/TR/2001/REC-SVG-20010904/DTD/svg10.dtd">
<svg version="1.0" xmlns="http://www.w3.org/2000/svg"
 width="1400.000000pt" height="1400.000000pt" viewBox="0 0 1400.000000 1400.000000"
 preserveAspectRatio="xMidYMid meet">
<metadata>
Created by potrace 1.14, written by Peter Selinger 2001-2017
</metadata>
<g transform="translate(0.000000,1400.000000) scale(0.100000,-0.100000)"
fill="#000000" stroke="none">
<path d="M2100 13994 c-8 -3 -22 -8 -30 -11 -8 -3 -23 -7 -32 -9 -46 -9 -256
-162 -257 -188 -1 -5 -9 -16 -19 -25 -23 -20 -82 -114 -82 -129 0 -7 -4 -12
-10 -12 -5 0 -10 -4 -10 -10 0 -5 -14 -32 -30 -60 -34 -57 -71 -156 -62 -164
3 -3 0 -6 -6 -6 -6 0 -9 -9 -7 -20 2 -11 -1 -20 -7 -20 -6 0 -9 -2 -6 -5 3 -4
1 -25 -4 -48 -5 -23 -11 -51 -13 -62 -1 -11 -6 -38 -10 -60 -22 -116 -34 -188
-39 -235 -11 -96 -18 -178 -22 -245 -8 -151 -11 -1994 -3 -1989 5 3 5 -5 1
-18 -4 -13 -7 -34 -6 -48 1 -14 4 -76 7 -138 3 -62 9 -116 12 -121 3 -5 1 -12
-5 -16 -6 -4 -7 -11 -3 -17 3 -7 8 -127 9 -267 2 -232 8 -396 19 -536 8 -93
16 -276 29 -632 2 -56 7 -107 11 -112 3 -6 1 -11 -5 -11 -6 0 -8 -5 -4 -12 5
-7 9 -26 10 -43 8 -147 16 -278 20 -315 3 -25 5 -64 6 -87 0 -24 4 -43 7 -43
4 0 7 -12 8 -27 1 -33 9 -72 23 -108 5 -14 7 -25 4 -25 -4 0 -1 -6 5 -13 6 -8
8 -17 4 -20 -3 -4 -1 -7 6 -7 7 0 9 -5 6 -10 -6 -9 73 -181 108 -234 38 -60
169 -191 180 -180 2 3 10 -2 17 -11 7 -8 16 -15 20 -15 4 0 25 -8 46 -17 22
-10 44 -18 49 -18 6 0 17 -5 25 -10 16 -10 249 -17 264 -8 5 4 21 7 35 9 14 1
38 5 54 8 61 13 73 15 107 20 19 3 36 10 38 15 2 6 9 8 16 5 7 -3 47 7 87 21
41 15 81 28 89 30 8 2 16 4 18 5 1 2 5 3 10 4 16 3 148 61 167 73 11 7 27 13
36 13 10 0 19 4 21 9 2 5 10 11 18 13 8 2 17 5 20 8 8 8 99 50 106 49 4 0 10
4 13 9 7 12 105 69 144 83 15 6 27 14 27 19 0 4 8 10 18 14 9 3 26 11 37 18
62 40 103 65 127 77 15 8 36 22 47 32 10 10 21 16 24 13 2 -2 10 2 17 11 7 8
18 15 26 15 7 0 19 6 26 13 19 19 152 92 161 89 5 -1 21 7 37 18 15 11 31 20
35 20 17 0 288 130 296 142 3 6 9 9 13 9 7 -1 72 37 149 87 29 18 68 42 87 53
19 11 49 28 65 39 17 10 41 25 55 33 35 20 142 85 160 97 8 6 25 16 37 23 36
20 264 159 309 189 23 16 45 28 49 28 3 0 25 13 48 28 23 16 94 60 157 98 63
37 117 72 118 76 2 4 7 8 12 8 9 0 326 195 423 261 32 21 62 39 67 39 6 0 10
4 10 8 0 5 11 14 24 20 14 6 86 52 161 102 75 49 140 90 145 90 4 0 10 4 12 8
2 5 32 26 68 48 36 21 67 42 68 47 2 4 9 7 16 7 7 0 30 13 52 30 21 16 44 30
51 30 6 0 18 6 25 14 8 7 27 21 43 30 41 23 53 30 188 121 66 44 127 85 137
90 9 6 24 17 32 25 9 8 31 26 49 40 98 73 259 239 283 291 5 10 13 19 18 19 4
0 8 6 8 14 0 7 7 19 15 26 8 7 12 16 9 21 -3 5 -1 9 3 9 8 0 50 101 45 108 -1
1 4 17 11 35 20 52 7 234 -22 282 -3 6 -6 15 -7 22 -2 14 -56 125 -64 133 -3
3 -28 38 -55 79 -44 65 -223 258 -280 301 -42 32 -110 85 -115 90 -3 3 -27 21
-55 40 -27 19 -51 38 -53 42 -2 4 -8 8 -14 8 -8 0 -57 31 -113 73 -32 23 -286
187 -290 187 -3 0 -15 8 -26 19 -11 10 -36 27 -57 37 -20 11 -45 27 -56 37
-11 9 -23 17 -27 17 -8 0 -72 40 -94 58 -6 5 -15 11 -21 13 -11 5 -184 107
-222 131 -15 10 -34 21 -42 25 -8 3 -27 15 -42 25 -16 11 -28 16 -28 11 0 -4
-4 -3 -8 3 -6 9 -117 75 -312 186 -35 20 -98 57 -155 91 -16 10 -38 20 -47 23
-10 4 -18 10 -18 15 0 5 -5 9 -11 9 -6 0 -23 9 -39 20 -15 11 -30 17 -34 13
-3 -3 -6 -2 -6 4 0 5 -18 18 -40 28 -22 10 -40 21 -40 25 0 3 -16 12 -35 20
-19 8 -35 17 -35 21 0 4 -8 9 -17 12 -18 6 -73 37 -83 47 -5 5 -13 10 -89 52
-20 11 -48 29 -63 39 -14 11 -31 19 -37 19 -6 0 -11 5 -11 10 0 6 -6 10 -14
10 -7 0 -30 11 -50 25 -20 13 -36 22 -36 19 0 -3 -12 3 -27 14 -16 10 -75 42
-133 72 -58 29 -109 56 -114 61 -6 5 -18 9 -28 9 -10 0 -18 5 -18 10 0 6 -9
10 -20 10 -11 0 -20 5 -20 12 0 6 -3 9 -6 5 -3 -3 -24 5 -45 19 -21 13 -39 22
-39 20 0 -5 -288 140 -306 155 -8 6 -14 9 -14 5 0 -3 -18 5 -40 19 -22 14 -46
25 -55 25 -8 0 -15 4 -15 8 0 5 -16 14 -35 22 -19 8 -35 17 -35 22 0 4 -3 7
-7 6 -5 -1 -87 37 -183 84 -149 73 -239 116 -260 123 -3 1 -16 6 -30 12 -87
37 -156 65 -165 67 -5 2 -17 6 -25 9 -45 20 -100 35 -100 29 0 -4 -4 -2 -8 5
-4 6 -20 14 -35 17 -14 2 -30 7 -35 10 -5 3 -19 7 -33 10 -13 3 -51 13 -84 22
-66 18 -83 22 -134 30 -19 3 -45 10 -58 15 -16 6 -22 5 -18 -1 4 -6 -4 -6 -21
0 -29 12 -269 22 -294 14z"/>
<path d="M8343 10423 c-83 -16 -185 -64 -231 -107 -20 -20 -40 -36 -44 -36 -5
0 -8 -7 -8 -15 0 -8 -8 -22 -18 -32 -21 -20 -105 -173 -96 -173 4 0 2 -6 -3
-12 -5 -7 -21 -47 -35 -88 -23 -66 -34 -104 -64 -235 -4 -16 -8 -43 -9 -60 -2
-16 -4 -31 -5 -32 -4 -5 -6 -15 -14 -87 -4 -38 -10 -79 -12 -90 -6 -40 -16
-212 -17 -323 -1 -62 -6 -113 -10 -113 -4 0 -3 -9 3 -20 8 -14 8 -20 0 -20 -7
0 -7 -7 1 -21 6 -12 7 -19 2 -16 -7 4 -10 -88 -3 -103 1 -3 1 -9 0 -15 -8 -27
-4 -475 4 -475 4 0 4 -6 -2 -12 -5 -7 -8 -26 -5 -43 2 -16 4 -36 4 -42 -1 -7
-2 -32 -4 -55 -1 -24 1 -48 6 -55 4 -6 4 -14 -1 -17 -6 -3 -7 -20 -2 -40 4
-18 3 -40 -1 -49 -6 -10 -5 -18 1 -22 8 -5 8 -11 0 -20 -6 -8 -7 -16 -2 -19 5
-3 6 -23 2 -46 -4 -22 -5 -40 -1 -40 3 0 6 -142 6 -316 0 -174 4 -318 8 -321
4 -3 3 -11 -4 -19 -6 -8 -8 -14 -3 -14 14 0 6 -1156 -10 -1460 -7 -121 -18
-415 -18 -455 0 -109 13 -536 17 -580 3 -27 7 -79 10 -115 3 -36 7 -76 10 -90
2 -14 7 -50 10 -80 4 -30 10 -57 14 -60 3 -3 7 -14 7 -25 4 -53 44 -185 57
-185 6 0 8 -3 4 -6 -7 -7 32 -81 71 -134 28 -39 97 -107 132 -130 12 -8 28
-20 34 -26 13 -12 144 -76 194 -95 18 -6 45 -12 60 -13 15 -1 32 -4 37 -7 6
-3 42 -5 80 -4 64 3 88 6 152 20 13 3 26 6 30 6 5 1 15 5 24 10 9 4 27 10 40
13 36 6 252 80 324 111 17 7 48 20 70 29 22 9 48 21 57 26 10 6 25 10 33 10 8
0 15 4 15 10 0 5 3 10 8 9 16 -2 52 14 52 24 0 6 3 8 6 4 3 -3 75 30 160 73
85 43 154 76 154 72 0 -4 4 -2 8 5 11 17 429 233 451 233 6 0 11 5 11 10 0 6
7 10 15 10 9 0 42 14 75 30 33 17 60 27 60 23 0 -5 4 -3 8 2 6 9 55 36 72 40
30 7 324 156 331 167 3 5 8 8 10 6 5 -4 313 184 317 194 2 5 8 6 13 2 5 -3 9
-1 9 4 0 5 8 12 18 16 9 3 29 14 44 23 15 10 61 38 102 62 42 25 76 49 76 53
0 5 4 7 9 3 5 -3 15 0 23 7 17 17 117 78 127 78 4 0 16 9 26 20 10 11 23 20
28 20 6 0 24 11 41 24 17 13 41 26 54 30 12 4 22 12 22 17 0 5 9 9 21 9 11 0
17 5 14 10 -3 6 0 10 8 10 8 0 25 9 39 19 13 11 43 29 66 41 23 12 42 26 42
32 0 5 4 7 9 3 5 -3 15 1 23 8 7 7 32 24 56 37 23 13 42 27 42 32 0 4 3 7 8 6
4 -1 36 16 70 37 35 22 107 67 160 99 54 33 100 65 104 70 5 7 8 7 8 1 0 -6 3
-6 8 1 4 6 32 24 62 40 30 16 57 32 60 35 3 3 32 21 65 39 33 18 89 51 125 73
36 22 79 47 95 55 17 9 36 21 43 28 6 7 21 16 32 19 11 3 20 11 20 16 0 5 5 9
11 9 6 0 25 10 42 23 17 12 39 27 48 32 29 18 133 92 156 111 11 11 41 35 64
54 134 109 266 265 343 403 34 62 77 167 68 167 -4 0 -2 4 4 8 11 7 44 129 52
192 6 49 5 209 -2 247 -6 39 -24 107 -39 153 -27 79 -134 265 -164 283 -7 4
-13 12 -13 17 0 5 -25 35 -55 67 -30 32 -55 62 -55 66 0 5 -4 6 -8 3 -5 -3
-15 6 -22 19 -7 14 -18 25 -23 25 -5 0 -17 8 -26 18 -9 10 -45 41 -81 70 -36
29 -72 59 -81 67 -9 8 -21 15 -27 15 -7 0 -12 5 -12 10 0 6 -8 14 -17 17 -10
4 -27 15 -38 26 -11 10 -33 26 -49 34 -16 8 -39 24 -50 35 -12 11 -36 28 -53
39 -18 12 -33 25 -33 30 0 6 -4 8 -9 5 -4 -3 -16 3 -26 14 -10 11 -24 20 -31
20 -7 0 -14 4 -16 8 -1 5 -32 28 -68 52 -36 24 -67 46 -70 49 -8 10 -100 71
-106 71 -3 0 -12 6 -19 13 -28 25 -41 33 -75 53 -19 10 -40 24 -46 29 -6 6
-42 31 -80 55 -38 25 -72 49 -76 55 -5 6 -8 6 -8 0 0 -6 -3 -6 -8 1 -6 9 -175
124 -196 133 -4 2 -41 25 -82 52 -40 27 -78 49 -84 49 -5 0 -10 5 -10 10 0 6
-5 10 -10 10 -6 0 -16 5 -23 10 -25 22 -137 90 -147 90 -5 0 -10 5 -10 10 0 6
-7 10 -15 10 -7 0 -19 8 -24 18 -6 9 -11 13 -11 9 0 -5 -19 5 -42 22 -23 17
-47 31 -54 31 -7 0 -14 3 -16 8 -4 9 -107 72 -119 72 -5 0 -9 5 -9 10 0 6 -4
10 -10 10 -9 0 -72 39 -97 60 -7 6 -13 8 -13 5 0 -3 -17 6 -37 19 -46 30 -135
80 -183 104 -19 9 -36 20 -38 25 -2 4 -12 7 -22 7 -10 0 -20 4 -22 9 -1 5 -61
39 -132 75 -71 37 -134 70 -140 75 -6 5 -14 10 -19 10 -4 0 -33 14 -65 30 -31
16 -100 51 -152 77 -52 27 -97 52 -100 55 -3 4 -18 11 -33 14 -15 4 -27 11
-27 17 0 5 -4 7 -9 4 -5 -4 -11 -3 -13 1 -1 5 -43 28 -93 53 -49 25 -92 48
-95 51 -3 4 -39 24 -80 46 -85 45 -142 77 -251 139 -42 24 -81 44 -87 44 -7 0
-12 5 -12 11 0 5 -4 7 -10 4 -5 -3 -10 -1 -10 4 0 6 -3 10 -7 9 -5 -1 -50 19
-100 45 -51 26 -99 47 -108 47 -8 0 -15 5 -15 11 0 6 -7 9 -15 5 -8 -3 -15 -2
-15 2 0 9 -100 48 -112 44 -5 -1 -8 2 -8 7 0 5 -12 11 -27 14 -16 3 -41 11
-58 18 -16 6 -37 13 -45 14 -8 1 -51 13 -94 25 -44 12 -91 24 -105 26 -25 4
-36 6 -106 18 -16 3 -61 8 -100 11 -38 3 -84 7 -100 8 -17 2 -58 -3 -92 -10z"/>
<path d="M2108 6515 c-2 -2 -15 -6 -28 -9 -68 -13 -186 -68 -241 -114 -32 -26
-99 -92 -99 -97 0 -5 -24 -36 -46 -59 -40 -43 -164 -286 -164 -321 0 -8 -4
-15 -8 -15 -4 0 -8 -8 -8 -17 -1 -24 -11 -71 -17 -80 -3 -5 -8 -26 -11 -47 -4
-21 -9 -48 -11 -60 -5 -20 -9 -47 -21 -171 -9 -88 -9 -1579 0 -1592 5 -8 4
-13 -4 -13 -10 0 -10 -3 0 -15 7 -8 9 -15 4 -15 -7 0 -10 -101 -3 -120 1 -3 0
-9 -1 -15 -1 -5 -2 -129 0 -275 1 -146 3 -477 4 -736 2 -259 6 -476 10 -483 4
-6 3 -11 -3 -11 -6 0 -6 -11 -1 -28 4 -16 4 -36 -2 -45 -6 -11 -5 -17 2 -17 7
0 8 -6 2 -17 -5 -10 -6 -27 -1 -38 11 -29 11 -37 -3 -29 -7 5 -8 3 -3 -5 4 -7
9 -225 11 -484 2 -260 6 -492 8 -517 11 -125 17 -188 23 -215 4 -16 7 -41 9
-55 3 -29 9 -61 30 -144 9 -34 16 -67 16 -73 1 -7 5 -13 10 -13 4 0 7 -3 6 -8
-7 -33 75 -197 139 -277 27 -33 75 -81 108 -108 62 -50 192 -120 207 -111 4 3
8 1 8 -3 0 -7 72 -31 150 -50 63 -15 249 -4 290 16 8 5 25 7 38 6 12 -1 22 1
22 5 0 3 8 7 18 8 21 2 57 10 57 12 0 2 35 10 60 13 12 2 26 7 33 11 7 4 17 4
22 1 6 -3 10 -2 10 3 0 5 21 15 48 22 56 16 50 14 85 28 16 7 32 12 36 12 5 0
30 9 57 21 27 11 58 24 69 28 97 40 221 97 223 103 2 5 9 8 16 8 7 0 53 22
102 48 49 27 96 51 104 55 8 4 33 18 55 32 22 14 56 32 75 42 19 9 37 20 40
23 9 10 181 110 190 110 5 0 10 3 12 8 2 4 21 16 43 27 22 10 54 28 70 40 17
11 32 19 35 19 7 -2 262 125 278 138 6 6 12 7 12 4 0 -4 6 -2 13 4 20 18 308
190 317 190 5 0 10 3 12 8 4 9 157 102 169 102 5 0 9 5 9 12 0 6 3 9 6 5 4 -3
21 4 38 17 17 12 69 45 116 71 47 27 87 52 90 55 3 3 26 17 52 30 27 14 48 28
48 31 0 4 8 9 18 13 9 3 35 17 57 31 22 14 49 30 60 35 11 6 63 37 115 70 52
33 102 64 110 67 8 4 17 10 20 13 3 4 17 13 33 21 24 12 162 97 267 164 19 12
71 45 115 73 44 28 85 56 92 61 7 6 15 11 18 11 3 0 70 43 149 95 78 52 146
95 149 95 4 0 16 8 27 18 11 9 36 26 54 37 18 11 59 37 90 58 31 20 60 37 65
37 5 0 11 7 15 15 3 8 11 15 19 15 7 0 22 8 33 18 10 10 36 28 57 41 21 13 44
30 52 38 8 8 15 12 15 9 0 -3 8 1 18 10 9 9 59 47 110 85 52 38 90 69 86 69
-4 0 11 13 32 28 43 32 198 182 188 182 -4 0 2 8 13 18 23 20 103 126 103 136
0 3 11 23 23 44 29 45 55 117 60 167 2 11 5 25 8 30 7 15 4 109 -5 123 -4 7
-5 12 -2 12 2 0 0 15 -5 33 -6 17 -12 41 -14 52 -9 42 -93 197 -135 248 -6 7
-26 32 -46 57 -51 64 -123 138 -179 185 -26 22 -54 48 -63 58 -9 9 -20 17 -25
17 -4 0 -18 9 -30 21 -22 20 -240 167 -304 205 -18 10 -33 23 -33 28 0 5 -3 7
-6 3 -3 -3 -37 14 -74 39 -38 24 -71 44 -75 44 -3 0 -11 5 -18 10 -23 20 -102
70 -110 70 -4 0 -13 5 -20 10 -24 21 -138 90 -147 90 -6 0 -10 5 -10 10 0 6
-7 10 -15 10 -8 0 -15 5 -15 10 0 6 -4 10 -10 10 -5 0 -36 17 -67 37 -32 21
-70 43 -85 50 -16 7 -28 17 -28 23 0 5 -4 10 -10 10 -5 0 -39 18 -75 40 -36
22 -69 40 -74 40 -5 0 -11 4 -13 8 -1 5 -37 28 -78 52 -41 25 -77 47 -80 50
-3 4 -32 21 -65 40 -33 19 -62 36 -65 40 -3 3 -16 11 -30 18 -14 7 -44 25 -67
40 -81 52 -216 132 -225 132 -4 0 -8 4 -8 8 0 5 -15 16 -32 25 -18 10 -45 25
-60 35 -15 9 -98 59 -183 111 -86 51 -162 99 -168 105 -7 6 -19 12 -27 14 -8
2 -16 8 -18 13 -2 5 -10 9 -18 9 -8 0 -14 5 -14 10 0 6 -4 10 -9 10 -12 0
-275 162 -279 172 -2 4 -7 6 -12 3 -5 -3 -15 0 -22 7 -18 17 -63 44 -113 69
-22 11 -53 28 -70 39 -16 10 -75 42 -130 70 -55 29 -115 61 -132 72 -18 11
-33 16 -33 11 0 -4 -4 -3 -8 2 -4 6 -90 51 -192 102 -102 50 -214 108 -250
128 -90 52 -410 211 -440 220 -14 4 -30 11 -36 16 -16 13 -271 95 -336 109
-32 6 -62 9 -67 6 -5 -4 -11 -2 -13 3 -4 12 -71 20 -208 27 -58 3 -110 7 -117
9 -6 2 -13 2 -15 0z"/>
</g>
</svg>
