<?xml version="1.0" standalone="no"?>
<!DOCTYPE svg PUBLIC "-//W3C//DTD SVG 20010904//EN"
 "http://www.w3.org/TR/2001/REC-SVG-20010904/DTD/svg10.dtd">
<svg version="1.0" xmlns="http://www.w3.org/2000/svg"
 width="256.000000pt" height="256.000000pt" viewBox="0 0 256.000000 256.000000"
 preserveAspectRatio="xMidYMid meet">

<g transform="translate(0.000000,256.000000) scale(0.100000,-0.100000)"
fill="#000000" stroke="none">
<path d="M90 1998 c-19 -11 -47 -32 -62 -46 l-28 -26 0 -646 0 -646 27 -26
c50 -47 99 -68 158 -68 30 0 55 5 55 10 0 6 6 10 13 10 6 0 176 92 377 204
l365 203 3 -167 2 -167 28 -25 c49 -47 99 -68 157 -68 30 0 55 5 55 10 0 6 6
10 13 10 6 0 237 126 512 279 l500 278 3 -260 c2 -225 5 -263 19 -279 9 -10
22 -18 30 -18 7 0 13 -4 13 -10 0 -6 29 -10 68 -10 63 0 70 3 114 37 l47 38 0
665 0 665 -47 38 c-44 34 -51 37 -114 37 -39 0 -68 -4 -68 -10 0 -5 -6 -10
-13 -10 -8 0 -21 -8 -30 -18 -15 -16 -17 -51 -17 -279 l0 -261 -102 55 c-57
31 -107 59 -113 63 -5 4 -35 21 -65 37 -30 17 -206 114 -391 216 -185 103
-341 187 -348 187 -6 0 -11 5 -11 10 0 6 -25 10 -55 10 -59 0 -108 -21 -157
-68 l-28 -26 0 -163 c0 -90 -4 -163 -9 -163 -5 0 -168 88 -362 197 -195 108
-362 198 -371 201 -10 2 -18 8 -18 13 0 18 -114 8 -150 -13z"/>
</g>
</svg>
