<?xml version="1.0" encoding="UTF-8"?>
<svg xmlns="http://www.w3.org/2000/svg" xmlns:xlink="http://www.w3.org/1999/xlink" width="27px" height="16px" viewBox="0 0 27 16" version="1.1">
<g id="surface1">
<path style=" stroke:none;fill-rule:nonzero;fill:rgb(0%,0%,0%);fill-opacity:1;" d="M 1.210938 15.761719 C 1.015625 15.640625 0.726562 15.414062 0.574219 15.261719 L 0.285156 14.984375 L 0.285156 1.011719 L 0.5625 0.734375 C 1.078125 0.226562 1.585938 0 2.195312 0 C 2.503906 0 2.761719 0.0546875 2.761719 0.105469 C 2.761719 0.167969 2.824219 0.214844 2.894531 0.214844 C 2.957031 0.214844 4.714844 1.207031 6.792969 2.421875 L 10.5625 4.617188 L 10.59375 2.808594 L 10.613281 1.003906 L 10.902344 0.734375 C 11.410156 0.226562 11.925781 0 12.523438 0 C 12.832031 0 13.09375 0.0546875 13.09375 0.105469 C 13.09375 0.167969 13.152344 0.214844 13.222656 0.214844 C 13.285156 0.214844 15.671875 1.578125 18.515625 3.230469 L 23.679688 6.238281 L 23.710938 3.425781 C 23.726562 0.992188 23.761719 0.582031 23.90625 0.410156 C 24 0.300781 24.132812 0.214844 24.210938 0.214844 C 24.285156 0.214844 24.347656 0.167969 24.347656 0.105469 C 24.347656 0.0390625 24.648438 0 25.050781 0 C 25.703125 0 25.773438 0.03125 26.226562 0.398438 L 26.714844 0.808594 L 26.714844 15.1875 L 26.226562 15.597656 C 25.773438 15.964844 25.703125 15.996094 25.050781 15.996094 C 24.648438 15.996094 24.347656 15.957031 24.347656 15.890625 C 24.347656 15.835938 24.285156 15.78125 24.210938 15.78125 C 24.132812 15.78125 24 15.695312 23.90625 15.585938 C 23.75 15.414062 23.726562 15.035156 23.726562 12.570312 L 23.726562 9.75 L 22.679688 10.34375 C 22.085938 10.679688 21.570312 10.980469 21.511719 11.023438 C 21.457031 11.070312 21.148438 11.25 20.835938 11.425781 C 20.527344 11.605469 18.707031 12.65625 16.796875 13.761719 C 14.890625 14.871094 13.277344 15.78125 13.207031 15.78125 C 13.140625 15.78125 13.09375 15.835938 13.09375 15.890625 C 13.09375 15.957031 12.832031 15.996094 12.523438 15.996094 C 11.914062 15.996094 11.410156 15.769531 10.902344 15.261719 L 10.613281 14.984375 L 10.613281 13.21875 C 10.613281 12.246094 10.570312 11.457031 10.515625 11.457031 C 10.46875 11.457031 8.785156 12.40625 6.777344 13.589844 C 4.765625 14.753906 3.039062 15.726562 2.949219 15.761719 C 2.84375 15.78125 2.761719 15.84375 2.761719 15.898438 C 2.761719 16.09375 1.585938 15.988281 1.210938 15.761719 Z M 1.210938 15.761719 "/>
</g>
</svg>
