<?xml version="1.0" encoding="UTF-8"?>
<svg xmlns="http://www.w3.org/2000/svg" xmlns:xlink="http://www.w3.org/1999/xlink" width="24px" height="16px" viewBox="0 0 24 16" version="1.1">
<g id="surface1">
<path style=" stroke:none;fill-rule:nonzero;fill:rgb(0%,0%,0%);fill-opacity:1;" d="M 1.027344 14.921875 C 0.851562 14.816406 0.59375 14.617188 0.457031 14.484375 L 0.199219 14.238281 L 0.199219 1.953125 L 0.445312 1.707031 C 0.90625 1.261719 1.359375 1.0625 1.90625 1.0625 C 2.179688 1.0625 2.410156 1.109375 2.410156 1.15625 C 2.410156 1.210938 2.46875 1.25 2.53125 1.25 C 2.585938 1.25 4.15625 2.125 6.011719 3.191406 L 9.378906 5.121094 L 9.40625 3.53125 L 9.425781 1.945312 L 9.683594 1.707031 C 10.136719 1.261719 10.597656 1.0625 11.132812 1.0625 C 11.40625 1.0625 11.640625 1.109375 11.640625 1.15625 C 11.640625 1.210938 11.695312 1.25 11.757812 1.25 C 11.8125 1.25 13.945312 2.449219 16.484375 3.902344 L 21.097656 6.546875 L 21.125 4.074219 C 21.140625 1.933594 21.171875 1.574219 21.300781 1.421875 C 21.382812 1.328125 21.503906 1.25 21.574219 1.25 C 21.640625 1.25 21.695312 1.210938 21.695312 1.15625 C 21.695312 1.097656 21.964844 1.0625 22.324219 1.0625 C 22.90625 1.0625 22.96875 1.089844 23.375 1.414062 L 23.808594 1.773438 L 23.808594 14.417969 L 23.375 14.777344 C 22.96875 15.101562 22.90625 15.128906 22.324219 15.128906 C 21.964844 15.128906 21.695312 15.09375 21.695312 15.035156 C 21.695312 14.988281 21.640625 14.941406 21.574219 14.941406 C 21.503906 14.941406 21.382812 14.863281 21.300781 14.769531 C 21.160156 14.617188 21.140625 14.285156 21.140625 12.117188 L 21.140625 9.636719 L 20.203125 10.160156 C 19.675781 10.453125 19.214844 10.71875 19.160156 10.757812 C 19.113281 10.796875 18.835938 10.957031 18.558594 11.109375 C 18.28125 11.269531 16.65625 12.191406 14.949219 13.164062 C 13.246094 14.140625 11.804688 14.941406 11.742188 14.941406 C 11.683594 14.941406 11.640625 14.988281 11.640625 15.035156 C 11.640625 15.09375 11.40625 15.128906 11.132812 15.128906 C 10.585938 15.128906 10.136719 14.929688 9.683594 14.484375 L 9.425781 14.238281 L 9.425781 12.6875 C 9.425781 11.832031 9.386719 11.136719 9.339844 11.136719 C 9.296875 11.136719 7.792969 11.972656 6 13.011719 C 4.203125 14.035156 2.660156 14.890625 2.578125 14.921875 C 2.484375 14.941406 2.410156 14.996094 2.410156 15.042969 C 2.410156 15.214844 1.359375 15.121094 1.027344 14.921875 Z M 1.027344 14.921875 "/>
</g>
</svg>
