<?xml version="1.0" encoding="UTF-8"?>
<svg xmlns="http://www.w3.org/2000/svg" xmlns:xlink="http://www.w3.org/1999/xlink" width="28px" height="16px" viewBox="0 0 26 16" version="1.1">
<g id="surface1">
<path style=" stroke:none;fill-rule:nonzero;fill:rgb(0%,0%,0%);fill-opacity:1;" d="M 25.085938 0.519531 C 25.277344 0.632812 25.5625 0.851562 25.714844 1 L 26 1.269531 L 26 14.734375 L 25.726562 15.003906 C 25.21875 15.496094 24.71875 15.714844 24.121094 15.714844 C 23.816406 15.714844 23.5625 15.660156 23.5625 15.609375 C 23.5625 15.546875 23.5 15.503906 23.429688 15.503906 C 23.367188 15.503906 21.640625 14.546875 19.597656 13.378906 L 15.890625 11.261719 L 15.859375 13.003906 L 15.839844 14.742188 L 15.554688 15.003906 C 15.058594 15.496094 14.550781 15.714844 13.960938 15.714844 C 13.65625 15.714844 13.402344 15.660156 13.402344 15.609375 C 13.402344 15.546875 13.339844 15.503906 13.269531 15.503906 C 13.207031 15.503906 10.859375 14.191406 8.066406 12.597656 L 2.988281 9.699219 L 2.957031 12.410156 C 2.9375 14.753906 2.90625 15.148438 2.761719 15.316406 C 2.671875 15.421875 2.539062 15.503906 2.457031 15.503906 C 2.386719 15.503906 2.328125 15.546875 2.328125 15.609375 C 2.328125 15.671875 2.03125 15.714844 1.636719 15.714844 C 0.996094 15.714844 0.925781 15.683594 0.476562 15.328125 L 0 14.929688 L 0 1.070312 L 0.476562 0.675781 C 0.925781 0.320312 0.996094 0.289062 1.636719 0.289062 C 2.03125 0.289062 2.328125 0.332031 2.328125 0.394531 C 2.328125 0.445312 2.386719 0.5 2.457031 0.5 C 2.539062 0.5 2.671875 0.582031 2.761719 0.6875 C 2.914062 0.851562 2.9375 1.21875 2.9375 3.59375 L 2.9375 6.3125 L 3.972656 5.742188 C 4.550781 5.417969 5.058594 5.125 5.121094 5.082031 C 5.171875 5.042969 5.476562 4.863281 5.78125 4.699219 C 6.085938 4.519531 7.875 3.511719 9.753906 2.449219 C 11.632812 1.375 13.21875 0.5 13.289062 0.5 C 13.351562 0.5 13.402344 0.445312 13.402344 0.394531 C 13.402344 0.332031 13.65625 0.289062 13.960938 0.289062 C 14.558594 0.289062 15.058594 0.507812 15.554688 1 L 15.839844 1.269531 L 15.839844 2.96875 C 15.839844 3.90625 15.878906 4.667969 15.929688 4.667969 C 15.980469 4.667969 17.636719 3.75 19.609375 2.613281 C 21.589844 1.488281 23.285156 0.550781 23.378906 0.519531 C 23.480469 0.5 23.5625 0.4375 23.5625 0.382812 C 23.5625 0.195312 24.71875 0.300781 25.085938 0.519531 Z M 25.085938 0.519531 "/>
</g>
</svg>
