<svg 
 xmlns="http://www.w3.org/2000/svg"
 xmlns:xlink="http://www.w3.org/1999/xlink"
 width="10.795cm" height="12.771cm">
<path fill-rule="evenodd"  fill="rgb(255, 255, 255)"
 d="M146.252,0.989 C158.415,1.745 160.453,4.813 165.208,11.548 C164.861,42.088 164.515,72.638 164.169,103.178 C174.425,91.253 188.344,68.582 210.434,77.467 C225.929,98.951 223.273,169.959 217.936,226.346 C214.295,264.821 201.061,296.467 178.917,297.884 C174.509,296.457 169.830,295.025 167.997,290.961 C162.921,279.703 159.387,261.731 155.738,242.734 C150.374,214.805 145.616,184.191 142.335,165.579 C130.835,176.918 120.793,188.272 113.382,195.556 C111.452,197.454 110.017,197.948 109.873,201.500 C108.921,224.962 114.652,253.217 119.154,278.375 C120.809,287.628 124.856,295.205 132.943,304.039 C134.461,305.696 132.268,306.527 132.665,308.141 C130.287,308.468 126.940,307.201 125.590,305.601 C104.989,279.595 104.232,244.731 98.802,212.083 C98.488,211.524 97.038,212.650 96.671,212.969 C71.346,238.240 45.154,263.140 22.054,290.335 C19.610,293.212 16.557,292.913 14.491,294.974 C10.919,294.060 2.172,292.042 0.758,283.739 C-0.005,279.255 3.344,275.762 5.785,270.685 C9.754,262.432 14.417,252.087 18.179,240.616 C30.556,202.874 50.516,150.053 66.386,109.940 C78.734,78.730 85.379,60.028 94.265,50.010 C97.089,46.826 102.668,48.485 104.710,48.658 C107.886,50.519 111.152,49.972 111.507,55.301 C113.087,79.032 103.571,140.476 109.216,165.393 C121.295,151.173 134.234,136.771 138.378,132.339 C139.980,130.626 138.863,132.097 138.586,129.263 C135.718,99.871 133.575,57.882 137.520,7.609 C141.167,0.728 143.309,1.785 146.252,0.989 ZM91.343,93.087 C74.787,135.159 62.569,184.761 48.832,231.361 C64.331,215.538 79.073,198.422 88.921,187.890 C91.575,185.052 94.478,182.331 94.775,179.869 C95.237,176.028 95.573,175.955 95.261,172.689 C93.733,156.658 93.356,127.686 92.373,93.157 C92.369,93.017 91.524,92.907 91.343,93.087 C91.077,93.351 91.347,93.232 91.343,93.087 ZM196.466,100.217 C188.647,109.901 170.901,131.805 167.235,134.297 C166.919,134.511 165.336,135.514 164.965,137.234 C164.880,137.629 164.880,138.034 164.896,138.260 C165.348,144.624 173.423,229.839 180.043,266.020 C180.410,268.028 180.331,271.923 181.548,274.365 C182.436,274.797 183.018,273.634 183.748,272.453 C186.053,268.727 187.844,261.797 188.914,257.348 C201.836,203.647 200.353,122.462 200.102,107.676 C200.077,106.243 200.057,100.639 198.241,99.862 C197.764,99.658 197.159,99.805 196.466,100.217 ZM232.744,267.534 C237.441,268.047 240.790,270.151 243.733,273.431 C244.271,274.704 244.281,275.529 244.555,276.578 C244.684,279.480 243.554,281.479 242.006,283.617 C240.521,285.160 239.588,285.704 237.675,286.415 C233.533,286.428 230.483,285.809 226.478,283.594 C224.990,282.107 223.050,279.689 222.772,277.161 C223.126,274.097 223.533,271.807 226.343,269.165 C228.810,267.796 230.784,267.546 232.744,267.534 ZM238.889,314.316 C265.008,315.616 284.828,319.734 304.292,326.995 C305.222,327.890 305.451,328.361 305.114,330.142 C304.861,330.764 304.541,331.019 304.014,331.098 C242.871,314.352 175.722,319.749 119.450,335.064 C92.088,342.975 68.630,350.863 42.127,360.730 C40.680,361.269 38.905,361.678 36.905,361.406 C35.193,361.425 31.519,358.830 30.930,357.910 C30.282,356.601 28.899,351.119 31.556,348.679 C78.044,326.535 123.595,321.666 178.904,313.339 C198.485,310.390 218.348,314.519 238.889,314.316 Z"/>
</svg>